<mxfile host="app.diagrams.net" modified="2021-01-22T01:33:54.205Z" agent="5.0 (Windows NT 10.0; Win64; x64) AppleWebKit/537.36 (KHTML, like Gecko) Chrome/88.0.4324.104 Safari/537.36" etag="Q9ULszYvzr0di0L1156w" version="14.2.6" type="github">
  <diagram id="6nFHVU3AWh4bK4fXtMJE" name="Page-1">
    <mxGraphModel dx="1020" dy="499" grid="1" gridSize="10" guides="1" tooltips="1" connect="1" arrows="1" fold="1" page="1" pageScale="1" pageWidth="850" pageHeight="1100" math="0" shadow="0">
      <root>
        <mxCell id="0" />
        <mxCell id="1" parent="0" />
        <mxCell id="4rV-BlhsUyntredrkwUE-3" value="" style="edgeStyle=orthogonalEdgeStyle;rounded=0;orthogonalLoop=1;jettySize=auto;html=1;" edge="1" parent="1" source="4rV-BlhsUyntredrkwUE-1" target="4rV-BlhsUyntredrkwUE-2">
          <mxGeometry relative="1" as="geometry" />
        </mxCell>
        <mxCell id="4rV-BlhsUyntredrkwUE-1" value="START" style="rounded=0;whiteSpace=wrap;html=1;" vertex="1" parent="1">
          <mxGeometry x="140" y="50" width="120" height="60" as="geometry" />
        </mxCell>
        <mxCell id="4rV-BlhsUyntredrkwUE-5" value="" style="edgeStyle=orthogonalEdgeStyle;rounded=0;orthogonalLoop=1;jettySize=auto;html=1;" edge="1" parent="1" source="4rV-BlhsUyntredrkwUE-2" target="4rV-BlhsUyntredrkwUE-4">
          <mxGeometry relative="1" as="geometry" />
        </mxCell>
        <mxCell id="4rV-BlhsUyntredrkwUE-2" value="Declare set num =1" style="ellipse;whiteSpace=wrap;html=1;rounded=0;" vertex="1" parent="1">
          <mxGeometry x="140" y="180" width="120" height="80" as="geometry" />
        </mxCell>
        <mxCell id="4rV-BlhsUyntredrkwUE-7" value="" style="edgeStyle=orthogonalEdgeStyle;rounded=0;orthogonalLoop=1;jettySize=auto;html=1;" edge="1" parent="1" source="4rV-BlhsUyntredrkwUE-4" target="4rV-BlhsUyntredrkwUE-6">
          <mxGeometry relative="1" as="geometry" />
        </mxCell>
        <mxCell id="4rV-BlhsUyntredrkwUE-10" value="" style="edgeStyle=orthogonalEdgeStyle;rounded=0;orthogonalLoop=1;jettySize=auto;html=1;" edge="1" parent="1" source="4rV-BlhsUyntredrkwUE-4" target="4rV-BlhsUyntredrkwUE-9">
          <mxGeometry relative="1" as="geometry" />
        </mxCell>
        <mxCell id="4rV-BlhsUyntredrkwUE-4" value="num &amp;lt;=&lt;br&gt;100000" style="rhombus;whiteSpace=wrap;html=1;rounded=0;" vertex="1" parent="1">
          <mxGeometry x="160" y="340" width="80" height="80" as="geometry" />
        </mxCell>
        <mxCell id="4rV-BlhsUyntredrkwUE-6" value="end&amp;nbsp;" style="whiteSpace=wrap;html=1;rounded=0;" vertex="1" parent="1">
          <mxGeometry x="300" y="350" width="120" height="60" as="geometry" />
        </mxCell>
        <mxCell id="4rV-BlhsUyntredrkwUE-8" value="false" style="text;html=1;strokeColor=none;fillColor=none;align=center;verticalAlign=middle;whiteSpace=wrap;rounded=0;" vertex="1" parent="1">
          <mxGeometry x="250" y="330" width="40" height="20" as="geometry" />
        </mxCell>
        <mxCell id="4rV-BlhsUyntredrkwUE-13" value="" style="edgeStyle=orthogonalEdgeStyle;rounded=0;orthogonalLoop=1;jettySize=auto;html=1;" edge="1" parent="1" source="4rV-BlhsUyntredrkwUE-9" target="4rV-BlhsUyntredrkwUE-12">
          <mxGeometry relative="1" as="geometry" />
        </mxCell>
        <mxCell id="4rV-BlhsUyntredrkwUE-15" value="" style="edgeStyle=orthogonalEdgeStyle;rounded=0;orthogonalLoop=1;jettySize=auto;html=1;" edge="1" parent="1" source="4rV-BlhsUyntredrkwUE-9" target="4rV-BlhsUyntredrkwUE-14">
          <mxGeometry relative="1" as="geometry" />
        </mxCell>
        <mxCell id="4rV-BlhsUyntredrkwUE-9" value="is Prime num" style="rhombus;whiteSpace=wrap;html=1;rounded=0;" vertex="1" parent="1">
          <mxGeometry x="160" y="500" width="80" height="80" as="geometry" />
        </mxCell>
        <mxCell id="4rV-BlhsUyntredrkwUE-11" value="true" style="text;html=1;strokeColor=none;fillColor=none;align=center;verticalAlign=middle;whiteSpace=wrap;rounded=0;" vertex="1" parent="1">
          <mxGeometry x="210" y="450" width="40" height="20" as="geometry" />
        </mxCell>
        <mxCell id="4rV-BlhsUyntredrkwUE-12" value="outout:&lt;br&gt;&quot;is not prime and palondromic num&quot;" style="shape=trapezoid;perimeter=trapezoidPerimeter;whiteSpace=wrap;html=1;fixedSize=1;rounded=0;" vertex="1" parent="1">
          <mxGeometry x="500" y="620" width="120" height="60" as="geometry" />
        </mxCell>
        <mxCell id="4rV-BlhsUyntredrkwUE-17" style="edgeStyle=orthogonalEdgeStyle;rounded=0;orthogonalLoop=1;jettySize=auto;html=1;" edge="1" parent="1" source="4rV-BlhsUyntredrkwUE-14" target="4rV-BlhsUyntredrkwUE-12">
          <mxGeometry relative="1" as="geometry" />
        </mxCell>
        <mxCell id="4rV-BlhsUyntredrkwUE-22" value="" style="edgeStyle=orthogonalEdgeStyle;rounded=0;orthogonalLoop=1;jettySize=auto;html=1;" edge="1" parent="1" source="4rV-BlhsUyntredrkwUE-14" target="4rV-BlhsUyntredrkwUE-21">
          <mxGeometry relative="1" as="geometry" />
        </mxCell>
        <mxCell id="4rV-BlhsUyntredrkwUE-14" value="Pailindromic num" style="rhombus;whiteSpace=wrap;html=1;rounded=0;" vertex="1" parent="1">
          <mxGeometry x="120" y="660" width="120" height="80" as="geometry" />
        </mxCell>
        <mxCell id="4rV-BlhsUyntredrkwUE-19" value="false" style="text;html=1;strokeColor=none;fillColor=none;align=center;verticalAlign=middle;whiteSpace=wrap;rounded=0;" vertex="1" parent="1">
          <mxGeometry x="350" y="610" width="40" height="20" as="geometry" />
        </mxCell>
        <mxCell id="4rV-BlhsUyntredrkwUE-20" value="true" style="text;html=1;strokeColor=none;fillColor=none;align=center;verticalAlign=middle;whiteSpace=wrap;rounded=0;" vertex="1" parent="1">
          <mxGeometry x="220" y="650" width="40" height="20" as="geometry" />
        </mxCell>
        <mxCell id="4rV-BlhsUyntredrkwUE-25" value="" style="edgeStyle=orthogonalEdgeStyle;rounded=0;orthogonalLoop=1;jettySize=auto;html=1;" edge="1" parent="1" source="4rV-BlhsUyntredrkwUE-21" target="4rV-BlhsUyntredrkwUE-24">
          <mxGeometry relative="1" as="geometry" />
        </mxCell>
        <mxCell id="4rV-BlhsUyntredrkwUE-21" value="Pailindromic num" style="rhombus;whiteSpace=wrap;html=1;rounded=0;" vertex="1" parent="1">
          <mxGeometry x="120" y="820" width="120" height="80" as="geometry" />
        </mxCell>
        <mxCell id="4rV-BlhsUyntredrkwUE-23" value="true" style="text;html=1;strokeColor=none;fillColor=none;align=center;verticalAlign=middle;whiteSpace=wrap;rounded=0;" vertex="1" parent="1">
          <mxGeometry x="190" y="770" width="40" height="20" as="geometry" />
        </mxCell>
        <mxCell id="4rV-BlhsUyntredrkwUE-26" style="edgeStyle=orthogonalEdgeStyle;rounded=0;orthogonalLoop=1;jettySize=auto;html=1;" edge="1" parent="1" source="4rV-BlhsUyntredrkwUE-24">
          <mxGeometry relative="1" as="geometry">
            <mxPoint x="740" y="380" as="targetPoint" />
            <Array as="points">
              <mxPoint x="740" y="1020" />
            </Array>
          </mxGeometry>
        </mxCell>
        <mxCell id="4rV-BlhsUyntredrkwUE-24" value="output &quot;is a prime and palondromic num&quot;" style="whiteSpace=wrap;html=1;rounded=0;" vertex="1" parent="1">
          <mxGeometry x="120" y="990" width="120" height="60" as="geometry" />
        </mxCell>
        <mxCell id="4rV-BlhsUyntredrkwUE-27" value="" style="endArrow=classic;html=1;" edge="1" parent="1">
          <mxGeometry width="50" height="50" relative="1" as="geometry">
            <mxPoint x="740" y="390" as="sourcePoint" />
            <mxPoint x="430" y="390" as="targetPoint" />
          </mxGeometry>
        </mxCell>
      </root>
    </mxGraphModel>
  </diagram>
</mxfile>
